<?xml version="1.0" encoding="utf-8"?>
<!-- Generator: Adobe Illustrator 24.1.2, SVG Export Plug-In . SVG Version: 6.00 Build 0)  -->
<svg version="1.1" id="Camada_1" xmlns="http://www.w3.org/2000/svg" xmlns:xlink="http://www.w3.org/1999/xlink" x="0px" y="0px"
	 viewBox="0 0 1920 1080" style="enable-background:new 0 0 1920 1080;" xml:space="preserve">
<style type="text/css">
	.st0{fill:#FF9800;}
	.st1{fill:#CD001A;}
	.st2{fill:#2E008B;}
</style>
<g>
	<g>
		<path class="st0" d="M434.44,766.18c-21.43,8.78-44.85,13.71-69.4,13.88c-105.44,0.76-191.17-84.48-191.17-189.75v-6.11
			c0-33.26,26.97-60.23,60.23-60.23h0c33.46,0,60.5,27.27,60.23,60.73l-0.1,12.41v0.06C294.26,774.18,434.44,766.18,434.44,766.18z"
			/>
		<path class="st1" d="M553.39,534.42v53.48c0,80.09-49.03,149.68-118.96,178.28c0,0-114.05-12.17-114.05-121.15l0.4,0.31
			c11.5,8.96,25.87,14.39,41.5,14.67c39.08,0.74,71.07-31.99,71.07-71.09V443.23C552.38,443.23,553.39,534.42,553.39,534.42z"/>
		<path class="st2" d="M455.72,299.99c53.94,0,97.67,43.73,97.67,97.67v136.76c0,0-1.02-114.42-120.04-114.42h-93.07
			c-42.64,0-77.21-34.57-77.21-77.21v-37.42c0-2.98,2.41-5.39,5.39-5.39H455.72z"/>
	</g>
	<g>
		<g>
			<path class="st0" d="M662.12,682.72h-24.67v-8.9h60.04v8.9h-24.79v72.19h-10.59V682.72z"/>
			<path class="st0" d="M703.5,727.72c0.24,14.32,9.39,20.21,19.97,20.21c7.58,0,12.15-1.32,16.12-3.01l1.8,7.58
				c-3.73,1.68-10.11,3.61-19.37,3.61c-17.93,0-28.64-11.79-28.64-29.36s10.35-31.4,27.31-31.4c19.01,0,24.06,16.73,24.06,27.43
				c0,2.17-0.24,3.85-0.36,4.93H703.5z M734.55,720.14c0.12-6.74-2.77-17.2-14.68-17.2c-10.71,0-15.4,9.87-16.24,17.2H734.55z"/>
			<path class="st0" d="M799.39,752.75c-2.77,1.44-8.9,3.37-16.72,3.37c-17.57,0-29-11.91-29-29.72c0-17.93,12.27-30.92,31.28-30.92
				c6.26,0,11.79,1.56,14.68,3.01l-2.41,8.18c-2.53-1.44-6.5-2.77-12.27-2.77c-13.36,0-20.58,9.87-20.58,22.02
				c0,13.48,8.66,21.78,20.21,21.78c6.02,0,9.99-1.56,12.99-2.89L799.39,752.75z"/>
			<path class="st0" d="M811.78,712.44c0-6.02-0.12-10.95-0.48-15.76h9.38l0.6,9.63h0.24c2.89-5.53,9.63-10.95,19.25-10.95
				c8.06,0,20.58,4.81,20.58,24.79v34.77h-10.59v-33.57c0-9.38-3.49-17.21-13.48-17.21c-6.98,0-12.39,4.93-14.2,10.83
				c-0.48,1.32-0.72,3.13-0.72,4.93v35.01h-10.59V712.44z"/>
			<path class="st0" d="M931.25,725.31c0,21.54-14.92,30.92-29,30.92c-15.76,0-27.91-11.55-27.91-29.96
				c0-19.49,12.75-30.92,28.88-30.92C919.95,695.35,931.25,707.51,931.25,725.31z M885.05,725.92c0,12.75,7.34,22.38,17.69,22.38
				c10.11,0,17.69-9.51,17.69-22.62c0-9.87-4.93-22.38-17.45-22.38S885.05,714.85,885.05,725.92z"/>
			<path class="st0" d="M944.61,669.49h10.59v85.43h-10.59V669.49z"/>
			<path class="st0" d="M1025.7,725.31c0,21.54-14.92,30.92-29,30.92c-15.76,0-27.91-11.55-27.91-29.96
				c0-19.49,12.75-30.92,28.88-30.92C1014.39,695.35,1025.7,707.51,1025.7,725.31z M979.5,725.92c0,12.75,7.34,22.38,17.69,22.38
				c10.11,0,17.69-9.51,17.69-22.62c0-9.87-4.93-22.38-17.45-22.38C984.91,703.3,979.5,714.85,979.5,725.92z"/>
			<path class="st0" d="M1089.22,696.68c-0.24,4.21-0.48,8.9-0.48,16v33.81c0,13.36-2.65,21.54-8.3,26.59
				c-5.66,5.29-13.84,6.98-21.18,6.98c-6.98,0-14.68-1.68-19.37-4.81l2.65-8.06c3.85,2.41,9.87,4.57,17.09,4.57
				c10.83,0,18.77-5.66,18.77-20.33v-6.5h-0.24c-3.25,5.41-9.51,9.75-18.53,9.75c-14.44,0-24.79-12.27-24.79-28.4
				c0-19.73,12.87-30.92,26.23-30.92c10.11,0,15.64,5.29,18.17,10.11h0.24l0.48-8.78H1089.22z M1078.27,719.66
				c0-1.8-0.12-3.37-0.6-4.81c-1.93-6.14-7.1-11.19-14.8-11.19c-10.11,0-17.33,8.54-17.33,22.02c0,11.43,5.78,20.94,17.21,20.94
				c6.5,0,12.39-4.09,14.68-10.83c0.6-1.8,0.84-3.85,0.84-5.66V719.66z"/>
			<path class="st0" d="M1117.37,680.31c0.12,3.61-2.53,6.5-6.74,6.5c-3.73,0-6.38-2.89-6.38-6.5c0-3.73,2.77-6.62,6.62-6.62
				C1114.85,673.7,1117.37,676.58,1117.37,680.31z M1105.58,754.91v-58.23h10.59v58.23H1105.58z"/>
			<path class="st0" d="M1165.98,754.91l-0.84-7.34h-0.36c-3.25,4.57-9.51,8.66-17.81,8.66c-11.79,0-17.81-8.3-17.81-16.73
				c0-14.08,12.51-21.78,35.01-21.66v-1.2c0-4.81-1.32-13.48-13.24-13.48c-5.41,0-11.07,1.68-15.16,4.33l-2.41-6.98
				c4.81-3.13,11.79-5.17,19.13-5.17c17.81,0,22.14,12.15,22.14,23.82v21.78c0,5.05,0.24,9.99,0.96,13.96H1165.98z M1164.42,725.19
				c-11.55-0.24-24.67,1.8-24.67,13.12c0,6.86,4.57,10.11,9.99,10.11c7.58,0,12.39-4.81,14.08-9.75c0.36-1.08,0.6-2.29,0.6-3.37
				V725.19z"/>
			<path class="st0" d="M1223.12,727.72c0.24,14.32,9.39,20.21,19.97,20.21c7.58,0,12.15-1.32,16.12-3.01l1.8,7.58
				c-3.73,1.68-10.11,3.61-19.37,3.61c-17.93,0-28.64-11.79-28.64-29.36s10.35-31.4,27.31-31.4c19.01,0,24.06,16.73,24.06,27.43
				c0,2.17-0.24,3.85-0.36,4.93H1223.12z M1254.17,720.14c0.12-6.74-2.77-17.2-14.68-17.2c-10.71,0-15.4,9.87-16.24,17.2H1254.17z"
				/>
			<path class="st0" d="M1313.84,673.82v81.1h-10.47v-81.1H1313.84z"/>
			<path class="st0" d="M1332.96,712.44c0-6.02-0.12-10.95-0.48-15.76h9.38l0.6,9.63h0.24c2.89-5.53,9.63-10.95,19.25-10.95
				c8.06,0,20.58,4.81,20.58,24.79v34.77h-10.59v-33.57c0-9.38-3.49-17.21-13.48-17.21c-6.98,0-12.39,4.93-14.2,10.83
				c-0.48,1.32-0.72,3.13-0.72,4.93v35.01h-10.59V712.44z"/>
			<path class="st0" d="M1452.44,725.31c0,21.54-14.92,30.92-29,30.92c-15.76,0-27.91-11.55-27.91-29.96
				c0-19.49,12.75-30.92,28.88-30.92C1441.13,695.35,1452.44,707.51,1452.44,725.31z M1406.23,725.92
				c0,12.75,7.34,22.38,17.69,22.38c10.11,0,17.69-9.51,17.69-22.62c0-9.87-4.93-22.38-17.45-22.38S1406.23,714.85,1406.23,725.92z"
				/>
			<path class="st0" d="M1469.04,696.68l11.43,32.73c1.92,5.29,3.49,10.11,4.69,14.92h0.36c1.32-4.81,3.01-9.63,4.93-14.92
				l11.31-32.73h11.07l-22.86,58.23h-10.11l-22.14-58.23H1469.04z"/>
			<path class="st0" d="M1554.58,754.91l-0.84-7.34h-0.36c-3.25,4.57-9.51,8.66-17.81,8.66c-11.79,0-17.81-8.3-17.81-16.73
				c0-14.08,12.51-21.78,35.01-21.66v-1.2c0-4.81-1.32-13.48-13.24-13.48c-5.41,0-11.07,1.68-15.16,4.33l-2.41-6.98
				c4.81-3.13,11.79-5.17,19.13-5.17c17.81,0,22.14,12.15,22.14,23.82v21.78c0,5.05,0.24,9.99,0.96,13.96H1554.58z M1553.02,725.19
				c-11.55-0.24-24.67,1.8-24.67,13.12c0,6.86,4.57,10.11,9.99,10.11c7.58,0,12.39-4.81,14.08-9.75c0.36-1.08,0.6-2.29,0.6-3.37
				V725.19z"/>
			<path class="st0" d="M1621.83,752.75c-2.53,1.32-8.06,3.13-15.04,3.37l-3.13,4.81c4.45,0.6,8.42,3.73,8.42,8.3
				c0,7.1-5.9,9.75-12.51,9.75c-3.01,0-6.14-0.84-8.18-2.05l1.8-5.17c1.92,1.2,4.33,1.8,6.5,1.8c2.65,0,5.17-0.96,5.17-3.85
				c-0.12-3.13-3.73-4.57-9.38-5.05l5.05-8.78c-14.92-1.93-24.42-13.24-24.42-29.48c0-17.93,12.27-30.92,31.28-30.92
				c6.26,0,11.79,1.56,14.68,3.01l-2.41,8.18c-2.53-1.44-6.5-2.77-12.27-2.77c-13.36,0-20.58,9.87-20.58,22.02
				c0,13.48,8.66,21.78,20.21,21.78c6.02,0,9.99-1.56,12.99-2.89L1621.83,752.75z"/>
			<path class="st0" d="M1666.47,754.91l-0.84-7.34h-0.36c-3.25,4.57-9.51,8.66-17.81,8.66c-11.79,0-17.81-8.3-17.81-16.73
				c0-14.08,12.51-21.78,35.01-21.66v-1.2c0-4.81-1.32-13.48-13.24-13.48c-5.41,0-11.07,1.68-15.16,4.33l-2.41-6.98
				c4.81-3.13,11.79-5.17,19.13-5.17c17.81,0,22.14,12.15,22.14,23.82v21.78c0,5.05,0.24,9.99,0.96,13.96H1666.47z M1639.28,686.69
				c-0.24-7.82,3.01-12.51,8.18-12.51c2.65,0,4.69,1.08,7.46,2.65c1.93,1.08,3.61,2.05,5.05,2.05c1.93,0,3.01-1.08,3.37-5.17h5.53
				c0.24,8.06-2.53,12.15-8.18,12.15c-2.53,0-4.81-1.08-7.34-2.41c-2.41-1.44-3.73-2.17-5.17-2.17c-1.92,0-2.89,2.05-3.13,5.41
				H1639.28z M1664.91,725.19c-11.55-0.24-24.67,1.8-24.67,13.12c0,6.86,4.57,10.11,9.99,10.11c7.58,0,12.39-4.81,14.08-9.75
				c0.36-1.08,0.6-2.29,0.6-3.37V725.19z"/>
			<path class="st0" d="M1744.91,725.31c0,21.54-14.92,30.92-29,30.92c-15.76,0-27.91-11.55-27.91-29.96
				c0-19.49,12.75-30.92,28.88-30.92C1733.6,695.35,1744.91,707.51,1744.91,725.31z M1698.71,725.92c0,12.75,7.34,22.38,17.69,22.38
				c10.11,0,17.69-9.51,17.69-22.62c0-9.87-4.93-22.38-17.45-22.38C1704.13,703.3,1698.71,714.85,1698.71,725.92z"/>
		</g>
		<g>
			<path class="st2" d="M855.23,299.99h-25.1c-30.74,0-55.65,24.92-55.65,55.65v131.67c0,5.4-1.66,24.14-11.65,34.55
				c-6.65,6.65-17.47,9.97-32.45,9.97c-14.59,0-25.82-3.32-32.89-9.55l-5.84-5.42l-54.1,60.35l6.23,5.42
				c22.48,19.99,51.63,29.96,86.59,29.96c47.03,0,75.74-19.55,91.14-35.38c33.72-35.38,34.13-83.24,33.72-91.99V299.99z"/>
			<path class="st2" d="M1033.25,483.55l-75.87-152.08c-9.62-19.29-29.33-31.48-50.88-31.48h-31.01v312.59h82v-96.56l35.38,71.38
				c7.64,15.42,23.37,25.18,40.58,25.18h0c17.42,0,33.3-9.99,40.84-25.7l31.8-66.28v91.99h82V299.99h-30.84
				c-21.86,0-41.78,12.53-51.25,32.23L1033.25,483.55z"/>
			<path class="st2" d="M1364.35,380.74c10.19,0,20.39,2.2,29.8,6.3c1.96,0.86,3.79,2.01,5.48,3.32l0,0
				c15.46,11.89,37.19,11.08,51.72-1.93l0.05-0.05l29.61-26.53c2.5-2.24,2.8-6.05,0.68-8.66l-1.63-2
				c-29.54-32.06-72-50.77-115.71-50.77c-86.15,0-156.08,69.93-156.08,156.08s69.93,156.08,156.08,156.08
				c43.71,0,86.17-18.3,115.71-51.19l3.3-3.54c1.17-1.25,1.09-3.22-0.18-4.37l-28.8-26.19l-0.33-0.3
				c-15.03-13.67-37.29-15.07-54.3-3.97c-1.17,0.76-2.25,1.39-3.2,1.85c-10.07,4.81-21.14,7.4-32.21,7.4
				c-41.61,0-75.74-34.13-75.74-75.77S1322.74,380.74,1364.35,380.74z"/>
			<path class="st2" d="M1740.21,480.09c-4.54-10.31-11.36-19.41-20.26-27.05c-8.54-7.32-19.08-13.64-31.32-18.79
				c-11.73-4.93-25.21-9.41-40.05-13.33c-12.11-3.22-22.27-6.08-30.22-8.49c-7.29-2.22-12.99-4.52-16.95-6.85
				c-3.72-2.18-5.24-4.04-5.86-5.23c-1.02-1.96-1.54-4.48-1.54-7.48v-0.82c0-4,1.66-7.08,5.37-9.97c4.27-3.32,11.71-5.07,21.53-5.07
				c10.91,0,22.03,2.3,33.04,6.82c6.21,2.56,12.56,5.65,18.99,9.24l0.17,0.1c14.6,8.21,33.05,3.95,42.55-9.84l2.53-3.67l23.3-33.79
				l-7.24-5.77c-15.51-12.35-32.78-21.97-51.32-28.58c-18.59-6.62-39.18-9.98-61.21-9.98c-15.73,0-30.39,2.24-43.57,6.65
				c-13.4,4.48-25.14,11.04-34.9,19.5c-9.83,8.52-17.57,18.79-23.02,30.52c-5.46,11.77-8.24,25.08-8.24,39.56v0.82
				c0,15.59,2.6,28.99,7.72,39.83c5.16,10.92,12.54,20.18,21.93,27.5c8.97,7.02,19.94,12.95,32.6,17.64
				c12.09,4.49,25.71,8.59,40.43,12.19c11.63,2.91,21.17,5.7,28.34,8.29c6.79,2.46,12.06,4.89,15.65,7.2
				c3.48,2.24,4.66,3.95,5.04,4.74c0.85,1.78,1.28,3.99,1.28,6.56v0.82c0,5.15-1.91,8.61-6.39,11.57
				c-5.54,3.66-13.96,5.52-25.01,5.52c-14.87,0-28.7-2.86-41.1-8.52c-6.92-3.15-13.81-6.93-20.62-11.31
				c-0.06-0.04-0.12-0.08-0.18-0.12c-14.97-9.75-34.84-6.92-46.29,6.79l-3.44,4.13l-24.81,29.72l7.06,6.39
				c18.08,16.36,38.46,28.65,60.59,36.55c21.98,7.85,44.71,11.83,67.56,11.83c16.45,0,31.73-2.14,45.41-6.37
				c13.93-4.31,26.15-10.69,36.31-18.96c10.33-8.41,18.5-18.94,24.27-31.32c5.74-12.32,8.65-26.46,8.65-42.03v-0.82
				C1747,502.54,1744.71,490.32,1740.21,480.09z"/>
		</g>
	</g>
</g>
</svg>
