<?xml version="1.0" encoding="utf-8"?>
<!-- Generator: Adobe Illustrator 24.1.2, SVG Export Plug-In . SVG Version: 6.00 Build 0)  -->
<svg version="1.1" id="Camada_1" xmlns="http://www.w3.org/2000/svg" xmlns:xlink="http://www.w3.org/1999/xlink" x="0px" y="0px"
	 viewBox="0 0 1920 1080" style="enable-background:new 0 0 1920 1080;" xml:space="preserve">
<style type="text/css">
	.st0{fill:#FF9800;}
	.st1{fill:#CD001A;}
	.st2{fill:#2E008B;}
</style>
<g>
	<g>
		<path class="st0" d="M434.44,766.18c-21.43,8.78-44.85,13.71-69.4,13.88c-105.44,0.76-191.17-84.48-191.17-189.75v-6.11
			c0-33.26,26.97-60.23,60.23-60.23h0c33.46,0,60.5,27.27,60.23,60.73l-0.1,12.41v0.06C294.26,774.18,434.44,766.18,434.44,766.18z"
			/>
		<path class="st1" d="M553.39,534.42v53.48c0,80.09-49.03,149.68-118.96,178.28c0,0-114.05-12.17-114.05-121.15l0.4,0.31
			c11.5,8.96,25.87,14.39,41.5,14.67c39.08,0.74,71.07-31.99,71.07-71.09V443.23C552.38,443.23,553.39,534.42,553.39,534.42z"/>
		<path class="st2" d="M455.72,299.99c53.94,0,97.67,43.73,97.67,97.67v136.76c0,0-1.02-114.42-120.04-114.42h-93.07
			c-42.64,0-77.21-34.57-77.21-77.21v-37.42c0-2.98,2.41-5.39,5.39-5.39H455.72z"/>
	</g>
	<g>
		<g>
			<path class="st2" d="M855.23,299.99h-25.1c-30.74,0-55.65,24.92-55.65,55.65v131.67c0,5.4-1.66,24.14-11.65,34.55
				c-6.65,6.65-17.47,9.97-32.45,9.97c-14.59,0-25.82-3.32-32.89-9.55l-5.84-5.42l-54.1,60.35l6.23,5.42
				c22.48,19.99,51.63,29.96,86.59,29.96c47.03,0,75.74-19.55,91.14-35.38c33.72-35.38,34.13-83.24,33.72-91.99V299.99z"/>
			<path class="st2" d="M1033.25,483.55l-75.87-152.08c-9.62-19.29-29.33-31.48-50.88-31.48h-31.01v312.59h82v-96.56l35.38,71.38
				c7.64,15.42,23.37,25.18,40.58,25.18h0c17.42,0,33.3-9.99,40.84-25.7l31.8-66.28v91.99h82V299.99h-30.84
				c-21.86,0-41.78,12.53-51.25,32.23L1033.25,483.55z"/>
			<path class="st2" d="M1364.35,380.74c10.19,0,20.39,2.2,29.8,6.3c1.96,0.86,3.79,2.01,5.48,3.32l0,0
				c15.46,11.89,37.19,11.08,51.72-1.93l0.05-0.05l29.61-26.53c2.5-2.24,2.8-6.05,0.68-8.66l-1.63-2
				c-29.54-32.06-72-50.77-115.71-50.77c-86.15,0-156.08,69.93-156.08,156.08s69.93,156.08,156.08,156.08
				c43.71,0,86.17-18.3,115.71-51.19l3.3-3.54c1.17-1.25,1.09-3.22-0.18-4.37l-28.8-26.19l-0.33-0.3
				c-15.03-13.67-37.29-15.07-54.3-3.97c-1.17,0.76-2.25,1.39-3.2,1.85c-10.07,4.81-21.14,7.4-32.21,7.4
				c-41.61,0-75.74-34.13-75.74-75.77S1322.74,380.74,1364.35,380.74z"/>
			<path class="st2" d="M1740.21,480.09c-4.54-10.31-11.36-19.41-20.26-27.05c-8.54-7.32-19.08-13.64-31.32-18.79
				c-11.73-4.93-25.21-9.41-40.05-13.33c-12.11-3.22-22.27-6.08-30.22-8.49c-7.29-2.22-12.99-4.52-16.95-6.85
				c-3.72-2.18-5.24-4.04-5.86-5.23c-1.02-1.96-1.54-4.48-1.54-7.48v-0.82c0-4,1.66-7.08,5.37-9.97c4.27-3.32,11.71-5.07,21.53-5.07
				c10.91,0,22.03,2.3,33.04,6.82c6.21,2.56,12.56,5.65,18.99,9.24l0.17,0.1c14.6,8.21,33.05,3.95,42.55-9.84l2.53-3.67l23.3-33.79
				l-7.24-5.77c-15.51-12.35-32.78-21.97-51.32-28.58c-18.59-6.62-39.18-9.98-61.21-9.98c-15.73,0-30.39,2.24-43.57,6.65
				c-13.4,4.48-25.14,11.04-34.9,19.5c-9.83,8.52-17.57,18.79-23.02,30.52c-5.46,11.77-8.24,25.08-8.24,39.56v0.82
				c0,15.59,2.6,28.99,7.72,39.83c5.16,10.92,12.54,20.18,21.93,27.5c8.97,7.02,19.94,12.95,32.6,17.64
				c12.09,4.49,25.71,8.59,40.43,12.19c11.63,2.91,21.17,5.7,28.34,8.29c6.79,2.46,12.06,4.89,15.65,7.2
				c3.48,2.24,4.66,3.95,5.04,4.74c0.85,1.78,1.28,3.99,1.28,6.56v0.82c0,5.15-1.91,8.61-6.39,11.57
				c-5.54,3.66-13.96,5.52-25.01,5.52c-14.87,0-28.7-2.86-41.1-8.52c-6.92-3.15-13.81-6.93-20.62-11.31
				c-0.06-0.04-0.12-0.08-0.18-0.12c-14.97-9.75-34.84-6.92-46.29,6.79l-3.44,4.13l-24.81,29.72l7.06,6.39
				c18.08,16.36,38.46,28.65,60.59,36.55c21.98,7.85,44.71,11.83,67.56,11.83c16.45,0,31.73-2.14,45.41-6.37
				c13.93-4.31,26.15-10.69,36.31-18.96c10.33-8.41,18.5-18.94,24.27-31.32c5.74-12.32,8.65-26.46,8.65-42.03v-0.82
				C1747,502.54,1744.71,490.32,1740.21,480.09z"/>
		</g>
	</g>
	</g>
</svg>
